# xmcd
#
# Track frame offsets:
#	150
#	23993
#	36091
#	47379
#	59788
#	74244
#	117097
#	129537
#	141396
#	153004
#	167468
#	188633
#	208136
#	217326
#	229433
#	256701
#	277713
#	296680
#
# Disc length: 4071 seconds
#
# Revision: 0
# Processed by: cddbd v1.5.2PL0 Copyright (c) Steve Scherf et al.
# Submitted via: EZCDAudioConverter 1.0.4.1
#
DISCID=150fe512
DTITLE=Pappo - Blues local
DYEAR=1992
DGENRE=
TTITLE0=Longchamps Boogie - Pappo
TTITLE1=Mi vieja - Pappo
TTITLE2=Buscando el tesoro de Borneo - Pappo
TTITLE3=Saco italiano - Pappo
TTITLE4=La almeja - Pappo
TTITLE5=Blues local - Pappo
TTITLE6=Pequeña ala - Pappo
TTITLE7=Una casa con 10 pinos - Pappo
TTITLE8=El tropezón - Pappo
TTITLE9=El hombre oculto - Pappo
TTITLE10=Dr. Tazo - Pappo
TTITLE11=Blues del perro - Pappo
TTITLE12=Dos bajistas - Pappo
TTITLE13=Nacido bajo un signo malo - Pappo
TTITLE14=Pappo
TTITLE15=Pappo
TTITLE16=Pappo
TTITLE17=Pappo
EXTD=
EXTT0=
EXTT1=
EXTT2=
EXTT3=
EXTT4=
EXTT5=
EXTT6=
EXTT7=
EXTT8=
EXTT9=
EXTT10=
EXTT11=
EXTT12=
EXTT13=
EXTT14=
EXTT15=
EXTT16=
EXTT17=
PLAYORDER=
